<svg width="1440" height="1024" viewBox="0 0 1440 1024" fill="none" xmlns="http://www.w3.org/2000/svg">
<rect width="1440" height="1024" fill="#F5F5F5"/>
<rect width="1440" height="1024" fill="white"/>
<path d="M243.478 561.814L230.881 509.653H149.854L137.598 561.814H109C112.858 547.647 117.171 532.299 121.937 515.771C126.703 499.243 131.81 482.285 137.257 464.898C142.932 447.511 148.833 430.124 154.961 412.737C161.089 395.135 167.557 378.392 174.366 362.508H209.092C215.674 378.392 221.916 395.135 227.817 412.737C233.945 430.124 239.619 447.511 244.84 464.898C250.287 482.285 255.394 499.243 260.16 515.771C264.926 532.299 269.239 547.647 273.097 561.814H243.478ZM190.708 385.69C185.488 399.214 179.814 414.883 173.686 432.7C167.557 450.516 161.77 468.869 156.323 487.759H224.413C219.192 468.44 213.518 449.872 207.39 432.056C201.489 414.025 195.928 398.57 190.708 385.69Z" fill="black"/>
<path d="M776.623 553.443C768.679 557.736 760.168 560.848 751.089 562.78C742.237 564.927 732.705 566 722.491 566C710.008 566 698.433 563.961 687.765 559.882C677.325 555.589 668.246 549.257 660.529 540.885C652.812 532.299 646.684 521.459 642.145 508.365C637.832 495.271 635.676 479.816 635.676 462C635.676 445.042 637.946 430.124 642.485 417.245C647.252 404.365 653.607 393.525 661.55 384.724C669.494 375.924 678.8 369.269 689.467 364.762C700.135 360.254 711.483 358 723.512 358C731.91 358 740.421 359.073 749.046 361.22C757.898 363.366 766.523 366.908 774.92 371.845L766.75 393.74C751.77 385.583 737.698 381.505 724.534 381.505C715.228 381.505 706.83 383.437 699.34 387.3C692.077 390.949 685.836 396.316 680.616 403.399C675.395 410.483 671.31 418.962 668.359 428.836C665.636 438.71 664.274 449.765 664.274 462C664.274 475.738 665.749 487.651 668.7 497.74C671.877 507.829 676.19 516.2 681.637 522.854C687.084 529.509 693.553 534.446 701.043 537.666C708.76 540.885 717.044 542.495 725.896 542.495C732.478 542.495 739.4 541.744 746.663 540.241C753.926 538.524 761.416 535.626 769.133 531.548L776.623 553.443Z" fill="black"/>
<path d="M1214.1 360.576C1226.58 360.576 1237.48 362.078 1246.78 365.084C1256.32 368.089 1264.15 372.382 1270.28 377.963C1276.63 383.329 1281.28 389.769 1284.23 397.282C1287.41 404.795 1289 413.166 1289 422.396C1289 443.218 1282.53 459.317 1269.59 470.693C1256.66 481.856 1237.25 487.437 1211.38 487.437H1186.86V561.814H1158.95V365.406C1163.03 364.547 1167.46 363.796 1172.23 363.152C1177.22 362.508 1182.1 361.971 1186.86 361.542C1191.86 361.112 1196.62 360.898 1201.16 360.898C1205.93 360.683 1210.24 360.576 1214.1 360.576ZM1216.14 383.437C1210.24 383.437 1204.57 383.544 1199.12 383.759C1193.67 383.759 1189.59 383.973 1186.86 384.402V464.898H1210.02C1227.04 464.898 1239.63 461.678 1247.81 455.238C1256.2 448.799 1260.4 438.173 1260.4 423.362C1260.4 396.745 1245.65 383.437 1216.14 383.437Z" fill="black"/>
<g filter="url(#filter0_f_0_1)">
<path d="M1052 206L1419 276.643L1052 338L5 276.643L1052 206Z" fill="url(#paint0_linear_0_1)" fill-opacity="0.25"/>
</g>
<g filter="url(#filter1_f_0_1)">
<path d="M388 686L21 756.643L388 818L1435 756.643L388 686Z" fill="url(#paint1_linear_0_1)" fill-opacity="0.25"/>
</g>
<path d="M181.792 648.24C181.312 648.24 180.752 648.224 180.112 648.192C179.472 648.16 178.832 648.112 178.192 648.048C177.552 648.016 176.912 647.952 176.272 647.856C175.632 647.76 175.072 647.648 174.592 647.52V618.72C175.072 618.592 175.616 618.48 176.224 618.384C176.864 618.288 177.504 618.224 178.144 618.192C178.816 618.128 179.456 618.08 180.064 618.048C180.704 618.016 181.28 618 181.792 618C183.264 618 184.64 618.128 185.92 618.384C187.2 618.64 188.304 619.072 189.232 619.68C190.192 620.288 190.928 621.088 191.44 622.08C191.984 623.072 192.256 624.304 192.256 625.776C192.256 626.48 192.144 627.168 191.92 627.84C191.696 628.48 191.376 629.088 190.96 629.664C190.576 630.24 190.112 630.752 189.568 631.2C189.056 631.616 188.496 631.936 187.888 632.16C189.52 632.608 190.88 633.44 191.968 634.656C193.088 635.84 193.648 637.392 193.648 639.312C193.648 642.256 192.704 644.48 190.816 645.984C188.928 647.488 185.92 648.24 181.792 648.24ZM178.528 634.128V644.736C178.592 644.768 178.944 644.816 179.584 644.88C180.256 644.912 181.088 644.928 182.08 644.928C183.072 644.928 184.016 644.848 184.912 644.688C185.84 644.528 186.656 644.24 187.36 643.824C188.064 643.376 188.624 642.8 189.04 642.096C189.488 641.392 189.712 640.48 189.712 639.36C189.712 638.368 189.504 637.536 189.088 636.864C188.704 636.192 188.176 635.664 187.504 635.28C186.864 634.864 186.112 634.576 185.248 634.416C184.384 634.224 183.488 634.128 182.56 634.128H178.528ZM178.528 630.864H181.648C182.448 630.864 183.248 630.784 184.048 630.624C184.848 630.464 185.568 630.208 186.208 629.856C186.848 629.504 187.36 629.024 187.744 628.416C188.128 627.808 188.32 627.04 188.32 626.112C188.32 625.248 188.144 624.512 187.792 623.904C187.44 623.296 186.976 622.8 186.4 622.416C185.824 622.032 185.152 621.76 184.384 621.6C183.648 621.44 182.864 621.36 182.032 621.36C181.2 621.36 180.464 621.376 179.824 621.408C179.216 621.408 178.784 621.44 178.528 621.504V630.864ZM201.136 648V626.928C204.4 625.808 207.696 625.248 211.024 625.248C212.048 625.248 213.024 625.296 213.952 625.392C214.88 625.456 215.904 625.616 217.024 625.872L216.304 629.376C215.28 629.088 214.368 628.912 213.568 628.848C212.8 628.752 211.952 628.704 211.024 628.704C209.072 628.704 207.088 628.976 205.072 629.52V648H201.136ZM230.032 622.272C229.2 622.272 228.48 621.984 227.872 621.408C227.264 620.832 226.96 620.048 226.96 619.056C226.96 618.064 227.264 617.28 227.872 616.704C228.48 616.128 229.2 615.84 230.032 615.84C230.896 615.84 231.616 616.128 232.192 616.704C232.8 617.28 233.104 618.064 233.104 619.056C233.104 620.048 232.8 620.832 232.192 621.408C231.616 621.984 230.896 622.272 230.032 622.272ZM229.024 629.04H222.592V625.728H232.96V639.408C232.96 641.616 233.264 643.104 233.872 643.872C234.48 644.608 235.392 644.976 236.608 644.976C237.536 644.976 238.384 644.864 239.152 644.64C239.952 644.416 240.576 644.176 241.024 643.92L241.6 647.28C241.408 647.376 241.136 647.504 240.784 647.664C240.432 647.792 240.016 647.92 239.536 648.048C239.088 648.176 238.576 648.288 238 648.384C237.456 648.48 236.88 648.528 236.272 648.528C234.864 648.528 233.696 648.336 232.768 647.952C231.84 647.568 231.088 646.992 230.512 646.224C229.968 645.456 229.584 644.512 229.36 643.392C229.136 642.24 229.024 640.912 229.024 639.408V629.04ZM247.408 626.352C248.848 626 250.272 625.728 251.68 625.536C253.12 625.344 254.464 625.248 255.712 625.248C258.688 625.248 260.928 626.016 262.432 627.552C263.968 629.088 264.736 631.552 264.736 634.944V648H260.8V635.664C260.8 634.224 260.672 633.056 260.416 632.16C260.16 631.264 259.792 630.576 259.312 630.096C258.864 629.584 258.304 629.232 257.632 629.04C256.992 628.848 256.288 628.752 255.52 628.752C254.88 628.752 254.192 628.8 253.456 628.896C252.752 628.96 252.064 629.056 251.392 629.184V648H247.408V626.352ZM284.608 645.936C284.16 646.192 283.472 646.464 282.544 646.752C281.616 647.04 280.544 647.184 279.328 647.184C278.016 647.184 276.784 646.976 275.632 646.56C274.512 646.112 273.52 645.456 272.656 644.592C271.824 643.696 271.152 642.576 270.64 641.232C270.16 639.856 269.92 638.24 269.92 636.384C269.92 634.752 270.144 633.264 270.592 631.92C271.072 630.544 271.744 629.36 272.608 628.368C273.504 627.376 274.592 626.608 275.872 626.064C277.152 625.488 278.608 625.2 280.24 625.2C282.16 625.2 283.792 625.344 285.136 625.632C286.512 625.888 287.664 626.144 288.592 626.4V646.272C288.592 649.728 287.712 652.224 285.952 653.76C284.224 655.296 281.6 656.064 278.08 656.064C276.64 656.064 275.328 655.952 274.144 655.728C272.992 655.504 271.968 655.232 271.072 654.912L271.792 651.408C272.624 651.76 273.568 652.048 274.624 652.272C275.712 652.496 276.896 652.608 278.176 652.608C280.48 652.608 282.128 652.144 283.12 651.216C284.112 650.288 284.608 648.784 284.608 646.704V645.936ZM284.608 629.232C284.224 629.104 283.696 628.992 283.024 628.896C282.352 628.768 281.44 628.704 280.288 628.704C278.24 628.704 276.672 629.408 275.584 630.816C274.528 632.224 274 634.096 274 636.432C274 637.712 274.144 638.816 274.432 639.744C274.752 640.64 275.168 641.392 275.68 642C276.224 642.576 276.832 643.008 277.504 643.296C278.176 643.552 278.896 643.68 279.664 643.68C280.656 643.68 281.584 643.536 282.448 643.248C283.344 642.96 284.064 642.624 284.608 642.24V629.232ZM302.032 622.272C301.2 622.272 300.48 621.984 299.872 621.408C299.264 620.832 298.96 620.048 298.96 619.056C298.96 618.064 299.264 617.28 299.872 616.704C300.48 616.128 301.2 615.84 302.032 615.84C302.896 615.84 303.616 616.128 304.192 616.704C304.8 617.28 305.104 618.064 305.104 619.056C305.104 620.048 304.8 620.832 304.192 621.408C303.616 621.984 302.896 622.272 302.032 622.272ZM301.024 629.04H294.592V625.728H304.96V639.408C304.96 641.616 305.264 643.104 305.872 643.872C306.48 644.608 307.392 644.976 308.608 644.976C309.536 644.976 310.384 644.864 311.152 644.64C311.952 644.416 312.576 644.176 313.024 643.92L313.6 647.28C313.408 647.376 313.136 647.504 312.784 647.664C312.432 647.792 312.016 647.92 311.536 648.048C311.088 648.176 310.576 648.288 310 648.384C309.456 648.48 308.88 648.528 308.272 648.528C306.864 648.528 305.696 648.336 304.768 647.952C303.84 647.568 303.088 646.992 302.512 646.224C301.968 645.456 301.584 644.512 301.36 643.392C301.136 642.24 301.024 640.912 301.024 639.408V629.04ZM319.408 626.352C320.848 626 322.272 625.728 323.68 625.536C325.12 625.344 326.464 625.248 327.712 625.248C330.688 625.248 332.928 626.016 334.432 627.552C335.968 629.088 336.736 631.552 336.736 634.944V648H332.8V635.664C332.8 634.224 332.672 633.056 332.416 632.16C332.16 631.264 331.792 630.576 331.312 630.096C330.864 629.584 330.304 629.232 329.632 629.04C328.992 628.848 328.288 628.752 327.52 628.752C326.88 628.752 326.192 628.8 325.456 628.896C324.752 628.96 324.064 629.056 323.392 629.184V648H319.408V626.352ZM356.608 645.936C356.16 646.192 355.472 646.464 354.544 646.752C353.616 647.04 352.544 647.184 351.328 647.184C350.016 647.184 348.784 646.976 347.632 646.56C346.512 646.112 345.52 645.456 344.656 644.592C343.824 643.696 343.152 642.576 342.64 641.232C342.16 639.856 341.92 638.24 341.92 636.384C341.92 634.752 342.144 633.264 342.592 631.92C343.072 630.544 343.744 629.36 344.608 628.368C345.504 627.376 346.592 626.608 347.872 626.064C349.152 625.488 350.608 625.2 352.24 625.2C354.16 625.2 355.792 625.344 357.136 625.632C358.512 625.888 359.664 626.144 360.592 626.4V646.272C360.592 649.728 359.712 652.224 357.952 653.76C356.224 655.296 353.6 656.064 350.08 656.064C348.64 656.064 347.328 655.952 346.144 655.728C344.992 655.504 343.968 655.232 343.072 654.912L343.792 651.408C344.624 651.76 345.568 652.048 346.624 652.272C347.712 652.496 348.896 652.608 350.176 652.608C352.48 652.608 354.128 652.144 355.12 651.216C356.112 650.288 356.608 648.784 356.608 646.704V645.936ZM356.608 629.232C356.224 629.104 355.696 628.992 355.024 628.896C354.352 628.768 353.44 628.704 352.288 628.704C350.24 628.704 348.672 629.408 347.584 630.816C346.528 632.224 346 634.096 346 636.432C346 637.712 346.144 638.816 346.432 639.744C346.752 640.64 347.168 641.392 347.68 642C348.224 642.576 348.832 643.008 349.504 643.296C350.176 643.552 350.896 643.68 351.664 643.68C352.656 643.68 353.584 643.536 354.448 643.248C355.344 642.96 356.064 642.624 356.608 642.24V629.232ZM405.904 633.36H409.84V647.28C409.232 647.504 408.256 647.776 406.912 648.096C405.568 648.448 403.984 648.624 402.16 648.624C400.368 648.624 398.736 648.288 397.264 647.616C395.792 646.912 394.528 645.904 393.472 644.592C392.448 643.28 391.648 641.664 391.072 639.744C390.496 637.792 390.208 635.584 390.208 633.12C390.208 630.624 390.528 628.416 391.168 626.496C391.808 624.576 392.672 622.96 393.76 621.648C394.88 620.336 396.176 619.344 397.648 618.672C399.12 617.968 400.704 617.616 402.4 617.616C403.488 617.616 404.448 617.696 405.28 617.856C406.112 618.016 406.816 618.208 407.392 618.432C408 618.656 408.496 618.896 408.88 619.152C409.264 619.376 409.552 619.552 409.744 619.68L408.448 622.992C407.712 622.416 406.832 621.952 405.808 621.6C404.816 621.216 403.76 621.024 402.64 621.024C401.424 621.024 400.288 621.312 399.232 621.888C398.208 622.464 397.328 623.28 396.592 624.336C395.856 625.392 395.28 626.672 394.864 628.176C394.448 629.648 394.24 631.296 394.24 633.12C394.24 634.912 394.416 636.544 394.768 638.016C395.152 639.488 395.696 640.752 396.4 641.808C397.104 642.864 397.968 643.696 398.992 644.304C400.048 644.88 401.248 645.168 402.592 645.168C403.52 645.168 404.24 645.104 404.752 644.976C405.264 644.848 405.648 644.72 405.904 644.592V633.36ZM424.24 645.168C425.232 645.168 426.112 645.136 426.88 645.072C427.68 645.008 428.336 644.928 428.848 644.832V638.208C428.336 638.048 427.712 637.92 426.976 637.824C426.272 637.728 425.52 637.68 424.72 637.68C423.984 637.68 423.264 637.744 422.56 637.872C421.856 637.968 421.232 638.16 420.688 638.448C420.144 638.736 419.696 639.12 419.344 639.6C418.992 640.048 418.816 640.624 418.816 641.328C418.816 642.768 419.296 643.776 420.256 644.352C421.248 644.896 422.576 645.168 424.24 645.168ZM423.856 625.2C425.52 625.2 426.912 625.408 428.032 625.824C429.184 626.24 430.112 626.816 430.816 627.552C431.52 628.288 432.016 629.184 432.304 630.24C432.592 631.296 432.736 632.448 432.736 633.696V647.616C431.808 647.776 430.576 647.968 429.04 648.192C427.536 648.416 425.984 648.528 424.384 648.528C423.168 648.528 421.984 648.416 420.832 648.192C419.68 648 418.656 647.648 417.76 647.136C416.864 646.592 416.144 645.856 415.6 644.928C415.056 644 414.784 642.816 414.784 641.376C414.784 640.096 415.056 639.024 415.6 638.16C416.176 637.264 416.896 636.544 417.76 636C418.656 635.456 419.664 635.072 420.784 634.848C421.936 634.592 423.088 634.464 424.24 634.464C425.808 634.464 427.344 634.64 428.848 634.992V633.888C428.848 633.216 428.768 632.576 428.608 631.968C428.48 631.328 428.208 630.752 427.792 630.24C427.408 629.728 426.864 629.328 426.16 629.04C425.488 628.72 424.608 628.56 423.52 628.56C422.144 628.56 420.944 628.656 419.92 628.848C418.896 629.04 418.112 629.232 417.568 629.424L417.088 626.16C417.632 625.904 418.528 625.68 419.776 625.488C421.056 625.296 422.416 625.2 423.856 625.2ZM437.968 626.352C439.888 625.616 441.696 625.248 443.392 625.248C444.32 625.248 445.184 625.392 445.984 625.68C446.816 625.936 447.52 626.352 448.096 626.928C449.472 625.808 450.944 625.248 452.512 625.248C453.28 625.248 454 625.392 454.672 625.68C455.376 625.968 455.984 626.4 456.496 626.976C457.04 627.552 457.472 628.272 457.792 629.136C458.112 630 458.272 631.008 458.272 632.16V648H454.672V632.064C454.672 630.912 454.416 630.032 453.904 629.424C453.392 628.816 452.752 628.512 451.984 628.512C451.6 628.512 451.2 628.608 450.784 628.8C450.368 628.992 449.984 629.296 449.632 629.712C449.824 630.448 449.92 631.264 449.92 632.16V639.408H446.32V632.112C446.32 630.992 446.144 630.112 445.792 629.472C445.44 628.832 444.752 628.512 443.728 628.512C443.088 628.512 442.368 628.656 441.568 628.944V648H437.968V626.352ZM472.432 625.2C475.44 625.2 477.76 626.144 479.392 628.032C481.024 629.888 481.84 632.72 481.84 636.528V637.92H465.904C466.064 640.224 466.816 641.984 468.16 643.2C469.536 644.384 471.456 644.976 473.92 644.976C475.328 644.976 476.528 644.864 477.52 644.64C478.512 644.416 479.264 644.176 479.776 643.92L480.304 647.28C479.824 647.536 478.96 647.808 477.712 648.096C476.464 648.384 475.056 648.528 473.488 648.528C471.568 648.528 469.872 648.24 468.4 647.664C466.96 647.056 465.76 646.24 464.8 645.216C463.84 644.192 463.12 642.976 462.64 641.568C462.16 640.128 461.92 638.576 461.92 636.912C461.92 634.928 462.224 633.2 462.832 631.728C463.44 630.256 464.24 629.04 465.232 628.08C466.224 627.12 467.344 626.4 468.592 625.92C469.84 625.44 471.12 625.2 472.432 625.2ZM477.808 634.704C477.808 632.816 477.312 631.328 476.32 630.24C475.328 629.12 474.016 628.56 472.384 628.56C471.456 628.56 470.608 628.736 469.84 629.088C469.104 629.44 468.464 629.904 467.92 630.48C467.376 631.056 466.944 631.712 466.624 632.448C466.304 633.184 466.096 633.936 466 634.704H477.808ZM525.904 618.288H529.84V648H525.904V634.176H514.096V648H510.16V618.288H514.096V630.816H525.904V618.288ZM544.24 645.168C545.232 645.168 546.112 645.136 546.88 645.072C547.68 645.008 548.336 644.928 548.848 644.832V638.208C548.336 638.048 547.712 637.92 546.976 637.824C546.272 637.728 545.52 637.68 544.72 637.68C543.984 637.68 543.264 637.744 542.56 637.872C541.856 637.968 541.232 638.16 540.688 638.448C540.144 638.736 539.696 639.12 539.344 639.6C538.992 640.048 538.816 640.624 538.816 641.328C538.816 642.768 539.296 643.776 540.256 644.352C541.248 644.896 542.576 645.168 544.24 645.168ZM543.856 625.2C545.52 625.2 546.912 625.408 548.032 625.824C549.184 626.24 550.112 626.816 550.816 627.552C551.52 628.288 552.016 629.184 552.304 630.24C552.592 631.296 552.736 632.448 552.736 633.696V647.616C551.808 647.776 550.576 647.968 549.04 648.192C547.536 648.416 545.984 648.528 544.384 648.528C543.168 648.528 541.984 648.416 540.832 648.192C539.68 648 538.656 647.648 537.76 647.136C536.864 646.592 536.144 645.856 535.6 644.928C535.056 644 534.784 642.816 534.784 641.376C534.784 640.096 535.056 639.024 535.6 638.16C536.176 637.264 536.896 636.544 537.76 636C538.656 635.456 539.664 635.072 540.784 634.848C541.936 634.592 543.088 634.464 544.24 634.464C545.808 634.464 547.344 634.64 548.848 634.992V633.888C548.848 633.216 548.768 632.576 548.608 631.968C548.48 631.328 548.208 630.752 547.792 630.24C547.408 629.728 546.864 629.328 546.16 629.04C545.488 628.72 544.608 628.56 543.52 628.56C542.144 628.56 540.944 628.656 539.92 628.848C538.896 629.04 538.112 629.232 537.568 629.424L537.088 626.16C537.632 625.904 538.528 625.68 539.776 625.488C541.056 625.296 542.416 625.2 543.856 625.2ZM558.352 636.912C558.352 634.896 558.672 633.152 559.312 631.68C559.952 630.208 560.832 628.992 561.952 628.032C563.072 627.072 564.368 626.368 565.84 625.92C567.344 625.44 568.944 625.2 570.64 625.2C571.728 625.2 572.8 625.28 573.856 625.44C574.944 625.568 576.096 625.824 577.312 626.208L576.4 629.616C575.344 629.232 574.368 628.992 573.472 628.896C572.608 628.768 571.728 628.704 570.832 628.704C569.68 628.704 568.592 628.864 567.568 629.184C566.544 629.472 565.648 629.952 564.88 630.624C564.144 631.264 563.552 632.112 563.104 633.168C562.656 634.192 562.432 635.44 562.432 636.912C562.432 638.32 562.64 639.536 563.056 640.56C563.472 641.552 564.048 642.384 564.784 643.056C565.552 643.696 566.464 644.176 567.52 644.496C568.576 644.816 569.744 644.976 571.024 644.976C572.048 644.976 573.024 644.928 573.952 644.832C574.912 644.704 575.952 644.448 577.072 644.064L577.648 647.376C576.528 647.792 575.392 648.08 574.24 648.24C573.088 648.432 571.84 648.528 570.496 648.528C568.704 648.528 567.056 648.288 565.552 647.808C564.08 647.296 562.8 646.56 561.712 645.6C560.656 644.64 559.824 643.44 559.216 642C558.64 640.528 558.352 638.832 558.352 636.912ZM591.424 635.76C592.288 636.4 593.264 637.216 594.352 638.208C595.44 639.168 596.512 640.208 597.568 641.328C598.656 642.448 599.68 643.6 600.64 644.784C601.6 645.936 602.368 647.008 602.944 648H598.24C597.632 647.008 596.88 646 595.984 644.976C595.088 643.92 594.128 642.912 593.104 641.952C592.112 640.992 591.104 640.112 590.08 639.312C589.088 638.512 588.192 637.84 587.392 637.296V648H583.408V615.408L587.392 614.736V635.04C589.152 633.504 590.912 631.984 592.672 630.48C594.432 628.944 596.016 627.36 597.424 625.728H602.08C600.704 627.36 599.04 629.04 597.088 630.768C595.168 632.496 593.28 634.16 591.424 635.76ZM614.032 622.272C613.2 622.272 612.48 621.984 611.872 621.408C611.264 620.832 610.96 620.048 610.96 619.056C610.96 618.064 611.264 617.28 611.872 616.704C612.48 616.128 613.2 615.84 614.032 615.84C614.896 615.84 615.616 616.128 616.192 616.704C616.8 617.28 617.104 618.064 617.104 619.056C617.104 620.048 616.8 620.832 616.192 621.408C615.616 621.984 614.896 622.272 614.032 622.272ZM613.024 629.04H606.592V625.728H616.96V639.408C616.96 641.616 617.264 643.104 617.872 643.872C618.48 644.608 619.392 644.976 620.608 644.976C621.536 644.976 622.384 644.864 623.152 644.64C623.952 644.416 624.576 644.176 625.024 643.92L625.6 647.28C625.408 647.376 625.136 647.504 624.784 647.664C624.432 647.792 624.016 647.92 623.536 648.048C623.088 648.176 622.576 648.288 622 648.384C621.456 648.48 620.88 648.528 620.272 648.528C618.864 648.528 617.696 648.336 616.768 647.952C615.84 647.568 615.088 646.992 614.512 646.224C613.968 645.456 613.584 644.512 613.36 643.392C613.136 642.24 613.024 640.912 613.024 639.408V629.04ZM631.408 626.352C632.848 626 634.272 625.728 635.68 625.536C637.12 625.344 638.464 625.248 639.712 625.248C642.688 625.248 644.928 626.016 646.432 627.552C647.968 629.088 648.736 631.552 648.736 634.944V648H644.8V635.664C644.8 634.224 644.672 633.056 644.416 632.16C644.16 631.264 643.792 630.576 643.312 630.096C642.864 629.584 642.304 629.232 641.632 629.04C640.992 628.848 640.288 628.752 639.52 628.752C638.88 628.752 638.192 628.8 637.456 628.896C636.752 628.96 636.064 629.056 635.392 629.184V648H631.408V626.352ZM668.608 645.936C668.16 646.192 667.472 646.464 666.544 646.752C665.616 647.04 664.544 647.184 663.328 647.184C662.016 647.184 660.784 646.976 659.632 646.56C658.512 646.112 657.52 645.456 656.656 644.592C655.824 643.696 655.152 642.576 654.64 641.232C654.16 639.856 653.92 638.24 653.92 636.384C653.92 634.752 654.144 633.264 654.592 631.92C655.072 630.544 655.744 629.36 656.608 628.368C657.504 627.376 658.592 626.608 659.872 626.064C661.152 625.488 662.608 625.2 664.24 625.2C666.16 625.2 667.792 625.344 669.136 625.632C670.512 625.888 671.664 626.144 672.592 626.4V646.272C672.592 649.728 671.712 652.224 669.952 653.76C668.224 655.296 665.6 656.064 662.08 656.064C660.64 656.064 659.328 655.952 658.144 655.728C656.992 655.504 655.968 655.232 655.072 654.912L655.792 651.408C656.624 651.76 657.568 652.048 658.624 652.272C659.712 652.496 660.896 652.608 662.176 652.608C664.48 652.608 666.128 652.144 667.12 651.216C668.112 650.288 668.608 648.784 668.608 646.704V645.936ZM668.608 629.232C668.224 629.104 667.696 628.992 667.024 628.896C666.352 628.768 665.44 628.704 664.288 628.704C662.24 628.704 660.672 629.408 659.584 630.816C658.528 632.224 658 634.096 658 636.432C658 637.712 658.144 638.816 658.432 639.744C658.752 640.64 659.168 641.392 659.68 642C660.224 642.576 660.832 643.008 661.504 643.296C662.176 643.552 662.896 643.68 663.664 643.68C664.656 643.68 665.584 643.536 666.448 643.248C667.344 642.96 668.064 642.624 668.608 642.24V629.232ZM711.664 625.728H721.072V629.04H711.664V639.408C711.664 640.528 711.744 641.44 711.904 642.144C712.064 642.848 712.32 643.424 712.672 643.872C713.056 644.288 713.536 644.576 714.112 644.736C714.688 644.896 715.392 644.976 716.224 644.976C717.376 644.976 718.304 644.88 719.008 644.688C719.712 644.496 720.384 644.24 721.024 643.92L721.6 647.28C721.152 647.472 720.432 647.728 719.44 648.048C718.48 648.368 717.28 648.528 715.84 648.528C714.176 648.528 712.816 648.336 711.76 647.952C710.704 647.568 709.872 646.992 709.264 646.224C708.688 645.456 708.288 644.512 708.064 643.392C707.84 642.24 707.728 640.912 707.728 639.408V629.04H703.024V625.728H707.728V619.488L711.664 618.816V625.728ZM746.08 636.864C746.08 638.624 745.824 640.224 745.312 641.664C744.832 643.072 744.144 644.288 743.248 645.312C742.352 646.336 741.28 647.136 740.032 647.712C738.784 648.256 737.424 648.528 735.952 648.528C734.512 648.528 733.168 648.256 731.92 647.712C730.704 647.136 729.648 646.336 728.752 645.312C727.856 644.288 727.152 643.072 726.64 641.664C726.16 640.224 725.92 638.624 725.92 636.864C725.92 635.104 726.16 633.504 726.64 632.064C727.152 630.624 727.856 629.408 728.752 628.416C729.648 627.392 730.704 626.608 731.92 626.064C733.168 625.488 734.512 625.2 735.952 625.2C737.424 625.2 738.784 625.488 740.032 626.064C741.28 626.608 742.352 627.392 743.248 628.416C744.144 629.408 744.832 630.624 745.312 632.064C745.824 633.504 746.08 635.104 746.08 636.864ZM742 636.864C742 634.336 741.456 632.352 740.368 630.912C739.28 629.44 737.808 628.704 735.952 628.704C734.128 628.704 732.672 629.44 731.584 630.912C730.528 632.352 730 634.336 730 636.864C730 639.36 730.528 641.344 731.584 642.816C732.672 644.256 734.128 644.976 735.952 644.976C737.808 644.976 739.28 644.256 740.368 642.816C741.456 641.344 742 639.36 742 636.864ZM783.664 625.728H793.072V629.04H783.664V639.408C783.664 640.528 783.744 641.44 783.904 642.144C784.064 642.848 784.32 643.424 784.672 643.872C785.056 644.288 785.536 644.576 786.112 644.736C786.688 644.896 787.392 644.976 788.224 644.976C789.376 644.976 790.304 644.88 791.008 644.688C791.712 644.496 792.384 644.24 793.024 643.92L793.6 647.28C793.152 647.472 792.432 647.728 791.44 648.048C790.48 648.368 789.28 648.528 787.84 648.528C786.176 648.528 784.816 648.336 783.76 647.952C782.704 647.568 781.872 646.992 781.264 646.224C780.688 645.456 780.288 644.512 780.064 643.392C779.84 642.24 779.728 640.912 779.728 639.408V629.04H775.024V625.728H779.728V619.488L783.664 618.816V625.728ZM799.408 648V615.408L803.392 614.736V626.064C804.032 625.808 804.752 625.616 805.552 625.488C806.352 625.328 807.136 625.248 807.904 625.248C809.6 625.248 811.008 625.504 812.128 626.016C813.28 626.496 814.192 627.184 814.864 628.08C815.536 628.976 816.016 630.048 816.304 631.296C816.592 632.544 816.736 633.92 816.736 635.424V648H812.8V636.288C812.8 633.536 812.416 631.6 811.648 630.48C810.88 629.328 809.504 628.752 807.52 628.752C806.688 628.752 805.872 628.848 805.072 629.04C804.304 629.2 803.744 629.36 803.392 629.52V648H799.408ZM832.432 625.2C835.44 625.2 837.76 626.144 839.392 628.032C841.024 629.888 841.84 632.72 841.84 636.528V637.92H825.904C826.064 640.224 826.816 641.984 828.16 643.2C829.536 644.384 831.456 644.976 833.92 644.976C835.328 644.976 836.528 644.864 837.52 644.64C838.512 644.416 839.264 644.176 839.776 643.92L840.304 647.28C839.824 647.536 838.96 647.808 837.712 648.096C836.464 648.384 835.056 648.528 833.488 648.528C831.568 648.528 829.872 648.24 828.4 647.664C826.96 647.056 825.76 646.24 824.8 645.216C823.84 644.192 823.12 642.976 822.64 641.568C822.16 640.128 821.92 638.576 821.92 636.912C821.92 634.928 822.224 633.2 822.832 631.728C823.44 630.256 824.24 629.04 825.232 628.08C826.224 627.12 827.344 626.4 828.592 625.92C829.84 625.44 831.12 625.2 832.432 625.2ZM837.808 634.704C837.808 632.816 837.312 631.328 836.32 630.24C835.328 629.12 834.016 628.56 832.384 628.56C831.456 628.56 830.608 628.736 829.84 629.088C829.104 629.44 828.464 629.904 827.92 630.48C827.376 631.056 826.944 631.712 826.624 632.448C826.304 633.184 826.096 633.936 826 634.704H837.808ZM880 648.624C878.24 648.624 876.736 648.368 875.488 647.856C874.272 647.344 873.28 646.624 872.512 645.696C871.744 644.768 871.184 643.632 870.832 642.288C870.48 640.944 870.304 639.44 870.304 637.776V618.288H874.24V637.344C874.24 638.848 874.368 640.112 874.624 641.136C874.912 642.128 875.296 642.928 875.776 643.536C876.288 644.144 876.896 644.576 877.6 644.832C878.304 645.088 879.104 645.216 880 645.216C880.896 645.216 881.696 645.088 882.4 644.832C883.104 644.576 883.696 644.144 884.176 643.536C884.688 642.928 885.072 642.128 885.328 641.136C885.616 640.112 885.76 638.848 885.76 637.344V618.288H889.696V637.776C889.696 639.44 889.52 640.944 889.168 642.288C888.816 643.632 888.256 644.768 887.488 645.696C886.72 646.624 885.712 647.344 884.464 647.856C883.248 648.368 881.76 648.624 880 648.624ZM895.408 626.352C896.848 626 898.272 625.728 899.68 625.536C901.12 625.344 902.464 625.248 903.712 625.248C906.688 625.248 908.928 626.016 910.432 627.552C911.968 629.088 912.736 631.552 912.736 634.944V648H908.8V635.664C908.8 634.224 908.672 633.056 908.416 632.16C908.16 631.264 907.792 630.576 907.312 630.096C906.864 629.584 906.304 629.232 905.632 629.04C904.992 628.848 904.288 628.752 903.52 628.752C902.88 628.752 902.192 628.8 901.456 628.896C900.752 628.96 900.064 629.056 899.392 629.184V648H895.408V626.352ZM926.032 622.272C925.2 622.272 924.48 621.984 923.872 621.408C923.264 620.832 922.96 620.048 922.96 619.056C922.96 618.064 923.264 617.28 923.872 616.704C924.48 616.128 925.2 615.84 926.032 615.84C926.896 615.84 927.616 616.128 928.192 616.704C928.8 617.28 929.104 618.064 929.104 619.056C929.104 620.048 928.8 620.832 928.192 621.408C927.616 621.984 926.896 622.272 926.032 622.272ZM925.024 629.04H918.592V625.728H928.96V639.408C928.96 641.616 929.264 643.104 929.872 643.872C930.48 644.608 931.392 644.976 932.608 644.976C933.536 644.976 934.384 644.864 935.152 644.64C935.952 644.416 936.576 644.176 937.024 643.92L937.6 647.28C937.408 647.376 937.136 647.504 936.784 647.664C936.432 647.792 936.016 647.92 935.536 648.048C935.088 648.176 934.576 648.288 934 648.384C933.456 648.48 932.88 648.528 932.272 648.528C930.864 648.528 929.696 648.336 928.768 647.952C927.84 647.568 927.088 646.992 926.512 646.224C925.968 645.456 925.584 644.512 925.36 643.392C925.136 642.24 925.024 640.912 925.024 639.408V629.04ZM947.728 648V629.04H943.024V625.728H947.728V623.712C947.728 621.984 947.968 620.56 948.448 619.44C948.928 618.288 949.552 617.36 950.32 616.656C951.12 615.952 952.032 615.456 953.056 615.168C954.112 614.88 955.216 614.736 956.368 614.736C957.52 614.736 958.672 614.864 959.824 615.12C961.008 615.376 962.112 615.68 963.136 616.032L962.416 619.44C961.712 619.088 960.832 618.784 959.776 618.528C958.72 618.272 957.648 618.144 956.56 618.144C955.888 618.144 955.248 618.24 954.64 618.432C954.064 618.592 953.552 618.896 953.104 619.344C952.656 619.76 952.304 620.336 952.048 621.072C951.792 621.776 951.664 622.672 951.664 623.76V625.728H960.64V629.04H951.664V648H947.728ZM974.032 622.272C973.2 622.272 972.48 621.984 971.872 621.408C971.264 620.832 970.96 620.048 970.96 619.056C970.96 618.064 971.264 617.28 971.872 616.704C972.48 616.128 973.2 615.84 974.032 615.84C974.896 615.84 975.616 616.128 976.192 616.704C976.8 617.28 977.104 618.064 977.104 619.056C977.104 620.048 976.8 620.832 976.192 621.408C975.616 621.984 974.896 622.272 974.032 622.272ZM973.024 629.04H966.592V625.728H976.96V639.408C976.96 641.616 977.264 643.104 977.872 643.872C978.48 644.608 979.392 644.976 980.608 644.976C981.536 644.976 982.384 644.864 983.152 644.64C983.952 644.416 984.576 644.176 985.024 643.92L985.6 647.28C985.408 647.376 985.136 647.504 984.784 647.664C984.432 647.792 984.016 647.92 983.536 648.048C983.088 648.176 982.576 648.288 982 648.384C981.456 648.48 980.88 648.528 980.272 648.528C978.864 648.528 977.696 648.336 976.768 647.952C975.84 647.568 975.088 646.992 974.512 646.224C973.968 645.456 973.584 644.512 973.36 643.392C973.136 642.24 973.024 640.912 973.024 639.408V629.04ZM1000.43 625.2C1003.44 625.2 1005.76 626.144 1007.39 628.032C1009.02 629.888 1009.84 632.72 1009.84 636.528V637.92H993.904C994.064 640.224 994.816 641.984 996.16 643.2C997.536 644.384 999.456 644.976 1001.92 644.976C1003.33 644.976 1004.53 644.864 1005.52 644.64C1006.51 644.416 1007.26 644.176 1007.78 643.92L1008.3 647.28C1007.82 647.536 1006.96 647.808 1005.71 648.096C1004.46 648.384 1003.06 648.528 1001.49 648.528C999.568 648.528 997.872 648.24 996.4 647.664C994.96 647.056 993.76 646.24 992.8 645.216C991.84 644.192 991.12 642.976 990.64 641.568C990.16 640.128 989.92 638.576 989.92 636.912C989.92 634.928 990.224 633.2 990.832 631.728C991.44 630.256 992.24 629.04 993.232 628.08C994.224 627.12 995.344 626.4 996.592 625.92C997.84 625.44 999.12 625.2 1000.43 625.2ZM1005.81 634.704C1005.81 632.816 1005.31 631.328 1004.32 630.24C1003.33 629.12 1002.02 628.56 1000.38 628.56C999.456 628.56 998.608 628.736 997.84 629.088C997.104 629.44 996.464 629.904 995.92 630.48C995.376 631.056 994.944 631.712 994.624 632.448C994.304 633.184 994.096 633.936 994 634.704H1005.81ZM1028.61 630.432C1028.16 630.016 1027.5 629.632 1026.64 629.28C1025.78 628.896 1024.88 628.704 1023.95 628.704C1022.9 628.704 1021.98 628.912 1021.22 629.328C1020.48 629.744 1019.87 630.32 1019.39 631.056C1018.91 631.76 1018.56 632.624 1018.34 633.648C1018.11 634.64 1018 635.712 1018 636.864C1018 639.456 1018.61 641.456 1019.82 642.864C1021.04 644.272 1022.62 644.976 1024.58 644.976C1025.57 644.976 1026.4 644.928 1027.07 644.832C1027.78 644.736 1028.29 644.64 1028.61 644.544V630.432ZM1028.61 615.408L1032.59 614.736V647.376C1031.73 647.632 1030.62 647.888 1029.28 648.144C1027.94 648.4 1026.37 648.528 1024.58 648.528C1022.98 648.528 1021.52 648.256 1020.21 647.712C1018.9 647.168 1017.78 646.4 1016.85 645.408C1015.92 644.384 1015.2 643.152 1014.69 641.712C1014.18 640.272 1013.92 638.656 1013.92 636.864C1013.92 635.136 1014.13 633.568 1014.54 632.16C1014.99 630.72 1015.63 629.488 1016.46 628.464C1017.3 627.44 1018.29 626.64 1019.44 626.064C1020.62 625.488 1021.97 625.2 1023.47 625.2C1024.66 625.2 1025.7 625.344 1026.59 625.632C1027.49 625.92 1028.16 626.224 1028.61 626.544V615.408ZM1071.28 618C1073.04 618 1074.58 618.224 1075.89 618.672C1077.23 619.12 1078.34 619.76 1079.2 620.592C1080.1 621.392 1080.75 622.352 1081.17 623.472C1081.62 624.592 1081.84 625.84 1081.84 627.216C1081.84 630.32 1080.93 632.72 1079.1 634.416C1077.28 636.08 1074.54 636.912 1070.9 636.912H1067.44V648H1063.5V618.72C1064.08 618.592 1064.7 618.48 1065.38 618.384C1066.08 618.288 1066.77 618.208 1067.44 618.144C1068.14 618.08 1068.82 618.048 1069.46 618.048C1070.13 618.016 1070.74 618 1071.28 618ZM1071.57 621.408C1070.74 621.408 1069.94 621.424 1069.17 621.456C1068.4 621.456 1067.82 621.488 1067.44 621.552V633.552H1070.7C1073.1 633.552 1074.88 633.072 1076.03 632.112C1077.22 631.152 1077.81 629.568 1077.81 627.36C1077.81 623.392 1075.73 621.408 1071.57 621.408ZM1100.22 648.528C1098.82 648.528 1097.65 648.336 1096.72 647.952C1095.79 647.568 1095.06 646.992 1094.51 646.224C1093.97 645.456 1093.58 644.512 1093.36 643.392C1093.14 642.24 1093.02 640.912 1093.02 639.408V618.336H1086.59V614.976H1096.96V639.408C1096.96 640.528 1097.02 641.44 1097.15 642.144C1097.31 642.848 1097.54 643.424 1097.82 643.872C1098.14 644.288 1098.53 644.576 1098.98 644.736C1099.42 644.896 1099.95 644.976 1100.56 644.976C1101.49 644.976 1102.35 644.864 1103.15 644.64C1103.95 644.416 1104.58 644.176 1105.02 643.92L1105.6 647.28C1105.41 647.376 1105.14 647.504 1104.78 647.664C1104.43 647.792 1104.02 647.92 1103.54 648.048C1103.06 648.176 1102.53 648.288 1101.95 648.384C1101.41 648.48 1100.83 648.528 1100.22 648.528ZM1120.24 645.168C1121.23 645.168 1122.11 645.136 1122.88 645.072C1123.68 645.008 1124.34 644.928 1124.85 644.832V638.208C1124.34 638.048 1123.71 637.92 1122.98 637.824C1122.27 637.728 1121.52 637.68 1120.72 637.68C1119.98 637.68 1119.26 637.744 1118.56 637.872C1117.86 637.968 1117.23 638.16 1116.69 638.448C1116.14 638.736 1115.7 639.12 1115.34 639.6C1114.99 640.048 1114.82 640.624 1114.82 641.328C1114.82 642.768 1115.3 643.776 1116.26 644.352C1117.25 644.896 1118.58 645.168 1120.24 645.168ZM1119.86 625.2C1121.52 625.2 1122.91 625.408 1124.03 625.824C1125.18 626.24 1126.11 626.816 1126.82 627.552C1127.52 628.288 1128.02 629.184 1128.3 630.24C1128.59 631.296 1128.74 632.448 1128.74 633.696V647.616C1127.81 647.776 1126.58 647.968 1125.04 648.192C1123.54 648.416 1121.98 648.528 1120.38 648.528C1119.17 648.528 1117.98 648.416 1116.83 648.192C1115.68 648 1114.66 647.648 1113.76 647.136C1112.86 646.592 1112.14 645.856 1111.6 644.928C1111.06 644 1110.78 642.816 1110.78 641.376C1110.78 640.096 1111.06 639.024 1111.6 638.16C1112.18 637.264 1112.9 636.544 1113.76 636C1114.66 635.456 1115.66 635.072 1116.78 634.848C1117.94 634.592 1119.09 634.464 1120.24 634.464C1121.81 634.464 1123.34 634.64 1124.85 634.992V633.888C1124.85 633.216 1124.77 632.576 1124.61 631.968C1124.48 631.328 1124.21 630.752 1123.79 630.24C1123.41 629.728 1122.86 629.328 1122.16 629.04C1121.49 628.72 1120.61 628.56 1119.52 628.56C1118.14 628.56 1116.94 628.656 1115.92 628.848C1114.9 629.04 1114.11 629.232 1113.57 629.424L1113.09 626.16C1113.63 625.904 1114.53 625.68 1115.78 625.488C1117.06 625.296 1118.42 625.2 1119.86 625.2ZM1143.66 625.728H1153.07V629.04H1143.66V639.408C1143.66 640.528 1143.74 641.44 1143.9 642.144C1144.06 642.848 1144.32 643.424 1144.67 643.872C1145.06 644.288 1145.54 644.576 1146.11 644.736C1146.69 644.896 1147.39 644.976 1148.22 644.976C1149.38 644.976 1150.3 644.88 1151.01 644.688C1151.71 644.496 1152.38 644.24 1153.02 643.92L1153.6 647.28C1153.15 647.472 1152.43 647.728 1151.44 648.048C1150.48 648.368 1149.28 648.528 1147.84 648.528C1146.18 648.528 1144.82 648.336 1143.76 647.952C1142.7 647.568 1141.87 646.992 1141.26 646.224C1140.69 645.456 1140.29 644.512 1140.06 643.392C1139.84 642.24 1139.73 640.912 1139.73 639.408V629.04H1135.02V625.728H1139.73V619.488L1143.66 618.816V625.728ZM1163.73 648V629.04H1159.02V625.728H1163.73V623.712C1163.73 621.984 1163.97 620.56 1164.45 619.44C1164.93 618.288 1165.55 617.36 1166.32 616.656C1167.12 615.952 1168.03 615.456 1169.06 615.168C1170.11 614.88 1171.22 614.736 1172.37 614.736C1173.52 614.736 1174.67 614.864 1175.82 615.12C1177.01 615.376 1178.11 615.68 1179.14 616.032L1178.42 619.44C1177.71 619.088 1176.83 618.784 1175.78 618.528C1174.72 618.272 1173.65 618.144 1172.56 618.144C1171.89 618.144 1171.25 618.24 1170.64 618.432C1170.06 618.592 1169.55 618.896 1169.1 619.344C1168.66 619.76 1168.3 620.336 1168.05 621.072C1167.79 621.776 1167.66 622.672 1167.66 623.76V625.728H1176.64V629.04H1167.66V648H1163.73ZM1202.08 636.864C1202.08 638.624 1201.82 640.224 1201.31 641.664C1200.83 643.072 1200.14 644.288 1199.25 645.312C1198.35 646.336 1197.28 647.136 1196.03 647.712C1194.78 648.256 1193.42 648.528 1191.95 648.528C1190.51 648.528 1189.17 648.256 1187.92 647.712C1186.7 647.136 1185.65 646.336 1184.75 645.312C1183.86 644.288 1183.15 643.072 1182.64 641.664C1182.16 640.224 1181.92 638.624 1181.92 636.864C1181.92 635.104 1182.16 633.504 1182.64 632.064C1183.15 630.624 1183.86 629.408 1184.75 628.416C1185.65 627.392 1186.7 626.608 1187.92 626.064C1189.17 625.488 1190.51 625.2 1191.95 625.2C1193.42 625.2 1194.78 625.488 1196.03 626.064C1197.28 626.608 1198.35 627.392 1199.25 628.416C1200.14 629.408 1200.83 630.624 1201.31 632.064C1201.82 633.504 1202.08 635.104 1202.08 636.864ZM1198 636.864C1198 634.336 1197.46 632.352 1196.37 630.912C1195.28 629.44 1193.81 628.704 1191.95 628.704C1190.13 628.704 1188.67 629.44 1187.58 630.912C1186.53 632.352 1186 634.336 1186 636.864C1186 639.36 1186.53 641.344 1187.58 642.816C1188.67 644.256 1190.13 644.976 1191.95 644.976C1193.81 644.976 1195.28 644.256 1196.37 642.816C1197.46 641.344 1198 639.36 1198 636.864ZM1209.14 648V626.928C1212.4 625.808 1215.7 625.248 1219.02 625.248C1220.05 625.248 1221.02 625.296 1221.95 625.392C1222.88 625.456 1223.9 625.616 1225.02 625.872L1224.3 629.376C1223.28 629.088 1222.37 628.912 1221.57 628.848C1220.8 628.752 1219.95 628.704 1219.02 628.704C1217.07 628.704 1215.09 628.976 1213.07 629.52V648H1209.14ZM1229.97 626.352C1231.89 625.616 1233.7 625.248 1235.39 625.248C1236.32 625.248 1237.18 625.392 1237.98 625.68C1238.82 625.936 1239.52 626.352 1240.1 626.928C1241.47 625.808 1242.94 625.248 1244.51 625.248C1245.28 625.248 1246 625.392 1246.67 625.68C1247.38 625.968 1247.98 626.4 1248.5 626.976C1249.04 627.552 1249.47 628.272 1249.79 629.136C1250.11 630 1250.27 631.008 1250.27 632.16V648H1246.67V632.064C1246.67 630.912 1246.42 630.032 1245.9 629.424C1245.39 628.816 1244.75 628.512 1243.98 628.512C1243.6 628.512 1243.2 628.608 1242.78 628.8C1242.37 628.992 1241.98 629.296 1241.63 629.712C1241.82 630.448 1241.92 631.264 1241.92 632.16V639.408H1238.32V632.112C1238.32 630.992 1238.14 630.112 1237.79 629.472C1237.44 628.832 1236.75 628.512 1235.73 628.512C1235.09 628.512 1234.37 628.656 1233.57 628.944V648H1229.97V626.352Z" fill="black"/>
<defs>
<filter id="filter0_f_0_1" x="1" y="202" width="1422" height="140" filterUnits="userSpaceOnUse" color-interpolation-filters="sRGB">
<feFlood flood-opacity="0" result="BackgroundImageFix"/>
<feBlend mode="normal" in="SourceGraphic" in2="BackgroundImageFix" result="shape"/>
<feGaussianBlur stdDeviation="2" result="effect1_foregroundBlur_0_1"/>
</filter>
<filter id="filter1_f_0_1" x="17" y="682" width="1422" height="140" filterUnits="userSpaceOnUse" color-interpolation-filters="sRGB">
<feFlood flood-opacity="0" result="BackgroundImageFix"/>
<feBlend mode="normal" in="SourceGraphic" in2="BackgroundImageFix" result="shape"/>
<feGaussianBlur stdDeviation="2" result="effect1_foregroundBlur_0_1"/>
</filter>
<linearGradient id="paint0_linear_0_1" x1="1000" y1="271.5" x2="1419" y2="272" gradientUnits="userSpaceOnUse">
<stop stop-color="#0E0E0E"/>
<stop offset="1" stop-color="#737373"/>
</linearGradient>
<linearGradient id="paint1_linear_0_1" x1="440" y1="751.5" x2="20.9999" y2="752" gradientUnits="userSpaceOnUse">
<stop stop-color="#0E0E0E"/>
<stop offset="1" stop-color="#737373"/>
</linearGradient>
</defs>
</svg>
